<svg width="24" height="24" viewBox="0 0 24 24" fill="none" xmlns="http://www.w3.org/2000/svg">
<path fill-rule="evenodd" clip-rule="evenodd" d="M8.24583 18.8633C8.72266 19.0037 9.22299 18.7309 9.36335 18.2541L10.1159 15.6976C11.3653 15.9673 12.6349 15.9673 13.8844 15.6976L14.6366 18.254C14.7769 18.7309 15.2772 19.0037 15.754 18.8634C16.2309 18.7231 16.5037 18.2228 16.3634 17.7459L15.5998 15.1508C16.6342 14.7115 17.6317 14.083 18.5728 13.2743L20.3348 15.2076C20.6696 15.575 21.2388 15.6014 21.6062 15.2666C21.9736 14.9318 22 14.3626 21.6652 13.9952L19.8607 12.0153C20.5343 11.2715 21.171 10.4245 21.7632 9.47697C22.0266 9.05547 21.8985 8.50021 21.477 8.23678C21.0555 7.97334 20.5002 8.10147 20.2368 8.52298C19.5378 9.64136 18.7844 10.5847 17.9979 11.3584C16.7915 12.5453 15.5105 13.3304 14.224 13.7448C12.754 14.2183 11.2463 14.2183 9.77631 13.7448C8.4898 13.3303 7.20876 12.5453 6.00231 11.3584C5.21573 10.5846 4.46215 9.64134 3.76317 8.52297C3.49973 8.10147 2.94448 7.97334 2.52297 8.23678C2.10147 8.50022 1.97334 9.05547 2.23678 9.47697C2.82906 10.4246 3.46585 11.2715 4.13945 12.0153L2.33482 13.9951C1.99998 14.3625 2.02634 14.9317 2.3937 15.2666C2.76105 15.6014 3.33029 15.575 3.66513 15.2077L5.42739 13.2743C6.36852 14.083 7.36603 14.7115 8.40047 15.1508L7.6366 17.7458C7.49624 18.2227 7.76901 18.723 8.24583 18.8633Z" fill="#CED4DA"/>
</svg>
